<svg width="201" height="64" viewBox="0 0 201 64" fill="none" xmlns="http://www.w3.org/2000/svg">
<path d="M60.024 49V15.4H66.984V42.856H85.368V49H60.024ZM121.812 32.2C121.812 34.6 121.348 36.872 120.42 39.016C119.492 41.128 118.228 42.968 116.628 44.536C115.06 46.072 113.188 47.288 111.012 48.184C108.836 49.08 106.5 49.528 104.004 49.528C101.54 49.528 99.2196 49.08 97.0436 48.184C94.8676 47.288 92.9796 46.072 91.3796 44.536C89.8116 42.968 88.5636 41.128 87.6356 39.016C86.7076 36.872 86.2436 34.6 86.2436 32.2C86.2436 29.8 86.7076 27.544 87.6356 25.432C88.5636 23.288 89.8116 21.448 91.3796 19.912C92.9796 18.344 94.8676 17.112 97.0436 16.216C99.2196 15.32 101.54 14.872 104.004 14.872C106.5 14.872 108.836 15.32 111.012 16.216C113.188 17.112 115.06 18.344 116.628 19.912C118.228 21.448 119.492 23.288 120.42 25.432C121.348 27.544 121.812 29.8 121.812 32.2ZM114.66 32.2C114.66 30.632 114.388 29.192 113.844 27.88C113.3 26.536 112.548 25.384 111.588 24.424C110.66 23.432 109.54 22.664 108.228 22.12C106.916 21.544 105.508 21.256 104.004 21.256C102.5 21.256 101.092 21.544 99.7796 22.12C98.4996 22.664 97.3796 23.432 96.4196 24.424C95.4916 25.384 94.7556 26.536 94.2116 27.88C93.6676 29.192 93.3956 30.632 93.3956 32.2C93.3956 33.736 93.6676 35.176 94.2116 36.52C94.7556 37.864 95.4916 39.032 96.4196 40.024C97.3796 40.984 98.4996 41.752 99.7796 42.328C101.092 42.872 102.5 43.144 104.004 43.144C105.508 43.144 106.916 42.872 108.228 42.328C109.54 41.752 110.66 40.984 111.588 40.024C112.548 39.032 113.3 37.864 113.844 36.52C114.388 35.176 114.66 33.736 114.66 32.2ZM159.993 32.248C159.993 34.712 159.561 37.016 158.697 39.16C157.865 41.272 156.697 43.096 155.193 44.632C153.721 46.136 151.945 47.336 149.865 48.232C147.785 49.096 145.545 49.528 143.145 49.528C140.649 49.528 138.313 49.08 136.137 48.184C133.961 47.288 132.073 46.072 130.473 44.536C128.905 42.968 127.657 41.128 126.729 39.016C125.801 36.904 125.337 34.632 125.337 32.2C125.337 29.768 125.785 27.496 126.681 25.384C127.609 23.272 128.857 21.448 130.425 19.912C132.025 18.344 133.913 17.112 136.089 16.216C138.265 15.32 140.585 14.872 143.049 14.872C145.833 14.872 148.457 15.432 150.921 16.552C153.385 17.672 155.417 19.208 157.017 21.16L152.169 25.624C150.985 24.216 149.609 23.144 148.041 22.408C146.505 21.64 144.841 21.256 143.049 21.256C141.545 21.256 140.137 21.544 138.825 22.12C137.545 22.664 136.425 23.432 135.465 24.424C134.537 25.384 133.801 26.536 133.257 27.88C132.745 29.192 132.489 30.632 132.489 32.2C132.489 33.768 132.761 35.224 133.305 36.568C133.849 37.912 134.601 39.08 135.561 40.072C136.521 41.032 137.657 41.8 138.969 42.376C140.313 42.92 141.737 43.192 143.241 43.192C145.609 43.192 147.641 42.536 149.337 41.224C151.065 39.912 152.137 38.232 152.553 36.184H142.617V30.136H159.993V32.248ZM199.015 32.2C199.015 34.6 198.551 36.872 197.623 39.016C196.695 41.128 195.431 42.968 193.831 44.536C192.263 46.072 190.391 47.288 188.215 48.184C186.039 49.08 183.703 49.528 181.207 49.528C178.743 49.528 176.423 49.08 174.247 48.184C172.071 47.288 170.183 46.072 168.583 44.536C167.015 42.968 165.767 41.128 164.839 39.016C163.911 36.872 163.447 34.6 163.447 32.2C163.447 29.8 163.911 27.544 164.839 25.432C165.767 23.288 167.015 21.448 168.583 19.912C170.183 18.344 172.071 17.112 174.247 16.216C176.423 15.32 178.743 14.872 181.207 14.872C183.703 14.872 186.039 15.32 188.215 16.216C190.391 17.112 192.263 18.344 193.831 19.912C195.431 21.448 196.695 23.288 197.623 25.432C198.551 27.544 199.015 29.8 199.015 32.2ZM191.863 32.2C191.863 30.632 191.591 29.192 191.047 27.88C190.503 26.536 189.751 25.384 188.791 24.424C187.863 23.432 186.743 22.664 185.431 22.12C184.119 21.544 182.711 21.256 181.207 21.256C179.703 21.256 178.295 21.544 176.983 22.12C175.703 22.664 174.583 23.432 173.623 24.424C172.695 25.384 171.959 26.536 171.415 27.88C170.871 29.192 170.599 30.632 170.599 32.2C170.599 33.736 170.871 35.176 171.415 36.52C171.959 37.864 172.695 39.032 173.623 40.024C174.583 40.984 175.703 41.752 176.983 42.328C178.295 42.872 179.703 43.144 181.207 43.144C182.711 43.144 184.119 42.872 185.431 42.328C186.743 41.752 187.863 40.984 188.791 40.024C189.751 39.032 190.503 37.864 191.047 36.52C191.591 35.176 191.863 33.736 191.863 32.2Z" fill="#1A7CC4"/>
<rect y="32.1421" width="32.7279" height="32.7279" transform="rotate(-45 0 32.1421)" fill="#1A7CC4"/>
</svg>
