<svg width="609" height="151" viewBox="0 0 609 151" fill="none" xmlns="http://www.w3.org/2000/svg">
<rect x="4" y="4" width="65" height="106" rx="17" stroke="white" stroke-width="8"/>
<circle cx="36.5" cy="84.5" r="10.5" fill="#1A7CC4"/>
<circle cx="306.5" cy="46.5" r="8.5" fill="#1A7CC4"/>
<rect x="212" y="5" width="116" height="83" rx="5" stroke="white" stroke-width="10"/>
<rect x="472" y="5" width="132" height="95" rx="5" stroke="white" stroke-width="10"/>
<path d="M498.905 114.248C499.575 112.873 500.971 112 502.501 112H571.611C573.082 112 574.435 112.808 575.133 114.104L591.825 145.104C593.26 147.769 591.33 151 588.303 151H487.398C484.443 151 482.508 147.905 483.802 145.248L498.905 114.248Z" fill="#1A7CC4"/>
<rect x="90" y="45" width="100" height="10" rx="5" fill="#1A7CC4"/>
<rect x="350" y="45" width="100" height="10" rx="5" fill="#1A7CC4"/>
</svg>
