<svg     viewBox="0 0 176 157" fill="none" xmlns="http://www.w3.org/2000/svg">
<path d="M0 0H176L96.1231 157H0V0Z" fill="#23262C"/>
<path d="M65.6287 60.9437C61.2203 61.8796 59.1043 66.9856 60.9098 72.3514C62.8188 78.0111 68.2737 81.6372 72.7702 80.2064C76.753 78.947 78.593 74.0713 76.868 68.9604C75.0625 63.5947 70.0293 60.0078 65.6287 60.9437ZM71.3173 75.6345L71.716 76.7566L70.8765 76.9771L70.5047 75.904C69.6383 76.1049 68.657 76.0755 67.7485 75.7717L67.4993 73.8753C68.2468 74.0223 69.1783 74.1595 69.8875 73.9733L70.3667 73.7724C71.2138 73.2383 70.9493 71.876 69.692 71.5526C68.7528 71.288 66.2688 71.484 65.3412 68.8477C64.8198 67.3581 65.207 65.8047 66.7058 65.0942L66.2918 63.923L67.1237 63.7025L67.5223 64.8247C68.1318 64.6973 68.8448 64.6483 69.6805 64.7414L70.014 66.6181C69.3623 66.5152 68.6608 66.4172 68.0513 66.5789L67.8213 66.6573C66.6368 67.0591 67.0163 68.4949 68.0667 68.8428C69.8032 69.3573 71.877 69.5239 72.6973 71.8417C73.3605 73.7283 72.59 75.0171 71.3173 75.6345ZM110.847 80.814L96.4103 40.5344C72.728 60.1548 46.5502 38.9762 27.5982 62.3599L42.0307 102.639C62.3397 80.6278 90.0202 101.473 110.847 80.814V80.814ZM100.102 71.7388C98.6643 74.2918 97.5987 77.2123 96.9623 80.2701C83.1892 85.6309 66.7135 79.2851 50.8933 86.3512C48.3365 84.6165 45.1318 83.5287 42.5022 83.6267L38.1513 71.4399C39.8073 68.8673 41.1107 64.9472 41.6703 61.1789C54.6998 55.1713 71.003 61.9384 88.4293 54.3138C90.4265 56.0092 92.761 57.2392 95.061 57.8468L100.102 71.7388V71.7388ZM111 99.3857C84.7148 118.697 63.4705 92.4078 36.25 128.738L19 79.8829L24.3743 72.714L38.9678 113.905L38.9602 113.939C67.4993 86.5227 81.8743 108.177 108.378 91.5797C109.505 94.755 110.544 98.1067 111 99.3857V99.3857Z" fill="white"/>
</svg>
