<svg width="350" height="82" viewBox="0 0 350 82" fill="none" xmlns="http://www.w3.org/2000/svg">
<path d="M0.024 58V24.4H25.848V30.448H6.984V38.128H19.416V43.984H6.984V51.952H26.04V58H0.024ZM28.6868 41.536H46.7348V47.104H28.6868V41.536ZM51.774 24.4H67.566C70.926 24.4 73.662 25.264 75.774 26.992C77.886 28.688 78.942 30.896 78.942 33.616C78.942 35.088 78.574 36.432 77.838 37.648C77.102 38.864 76.094 39.872 74.814 40.672C76.414 41.44 77.694 42.496 78.654 43.84C79.614 45.152 80.094 46.624 80.094 48.256C80.094 51.168 79.006 53.52 76.83 55.312C74.686 57.104 71.854 58 68.334 58H51.774V24.4ZM67.134 30.16H58.734V38.128H67.134C68.606 38.128 69.79 37.776 70.686 37.072C71.582 36.336 72.03 35.36 72.03 34.144C72.03 32.928 71.582 31.968 70.686 31.264C69.79 30.528 68.606 30.16 67.134 30.16ZM67.806 52.24C69.406 52.24 70.686 51.856 71.646 51.088C72.606 50.288 73.086 49.216 73.086 47.872C73.086 46.592 72.606 45.552 71.646 44.752C70.686 43.952 69.406 43.552 67.806 43.552H58.734V52.24H67.806ZM84.9615 58V24.4H101.378C103.074 24.4 104.626 24.656 106.034 25.168C107.474 25.68 108.706 26.4 109.73 27.328C110.754 28.224 111.554 29.312 112.13 30.592C112.706 31.872 112.994 33.28 112.994 34.816C112.994 36.928 112.386 38.816 111.17 40.48C109.986 42.144 108.402 43.376 106.418 44.176L113.858 58H106.082L99.5055 45.136H91.9215V58H84.9615ZM100.754 30.4H91.9215V39.424H100.754C102.322 39.424 103.57 39.008 104.498 38.176C105.458 37.344 105.938 36.256 105.938 34.912C105.938 33.568 105.458 32.48 104.498 31.648C103.57 30.816 102.322 30.4 100.754 30.4ZM151.812 41.2C151.812 43.6 151.348 45.872 150.42 48.016C149.492 50.128 148.228 51.968 146.628 53.536C145.06 55.072 143.188 56.288 141.012 57.184C138.836 58.08 136.5 58.528 134.004 58.528C131.54 58.528 129.22 58.08 127.044 57.184C124.868 56.288 122.98 55.072 121.38 53.536C119.812 51.968 118.564 50.128 117.636 48.016C116.708 45.872 116.244 43.6 116.244 41.2C116.244 38.8 116.708 36.544 117.636 34.432C118.564 32.288 119.812 30.448 121.38 28.912C122.98 27.344 124.868 26.112 127.044 25.216C129.22 24.32 131.54 23.872 134.004 23.872C136.5 23.872 138.836 24.32 141.012 25.216C143.188 26.112 145.06 27.344 146.628 28.912C148.228 30.448 149.492 32.288 150.42 34.432C151.348 36.544 151.812 38.8 151.812 41.2ZM144.66 41.2C144.66 39.632 144.388 38.192 143.844 36.88C143.3 35.536 142.548 34.384 141.588 33.424C140.66 32.432 139.54 31.664 138.228 31.12C136.916 30.544 135.508 30.256 134.004 30.256C132.5 30.256 131.092 30.544 129.78 31.12C128.5 31.664 127.38 32.432 126.42 33.424C125.492 34.384 124.756 35.536 124.212 36.88C123.668 38.192 123.396 39.632 123.396 41.2C123.396 42.736 123.668 44.176 124.212 45.52C124.756 46.864 125.492 48.032 126.42 49.024C127.38 49.984 128.5 50.752 129.78 51.328C131.092 51.872 132.5 52.144 134.004 52.144C135.508 52.144 136.916 51.872 138.228 51.328C139.54 50.752 140.66 49.984 141.588 49.024C142.548 48.032 143.3 46.864 143.844 45.52C144.388 44.176 144.66 42.736 144.66 41.2ZM153.707 52.672L157.691 47.68C159.643 49.376 161.515 50.624 163.307 51.424C165.131 52.192 167.051 52.576 169.067 52.576C171.147 52.576 172.811 52.192 174.059 51.424C175.307 50.656 175.931 49.632 175.931 48.352C175.931 47.2 175.499 46.304 174.635 45.664C173.803 45.024 172.395 44.544 170.411 44.224L163.739 43.072C160.859 42.592 158.667 41.584 157.163 40.048C155.691 38.512 154.955 36.528 154.955 34.096C154.955 30.96 156.139 28.48 158.507 26.656C160.907 24.832 164.139 23.92 168.203 23.92C170.635 23.92 173.083 24.336 175.547 25.168C178.043 26 180.219 27.152 182.075 28.624L178.331 33.808C176.539 32.432 174.779 31.424 173.051 30.784C171.323 30.112 169.547 29.776 167.723 29.776C165.867 29.776 164.379 30.128 163.259 30.832C162.139 31.504 161.579 32.416 161.579 33.568C161.579 34.592 161.947 35.392 162.683 35.968C163.419 36.544 164.651 36.96 166.379 37.216L172.715 38.272C176.043 38.816 178.539 39.888 180.203 41.488C181.899 43.056 182.747 45.136 182.747 47.728C182.747 50.832 181.579 53.36 179.243 55.312C176.907 57.232 173.755 58.272 169.787 58.432L169.259 60.208C170.635 60.336 171.739 60.784 172.571 61.552C173.403 62.32 173.819 63.296 173.819 64.48C173.819 65.856 173.211 67.008 171.995 67.936C170.811 68.864 169.307 69.328 167.483 69.328C166.299 69.328 165.195 69.136 164.171 68.752C163.179 68.4 162.283 67.872 161.483 67.168L163.643 64.864C164.219 65.312 164.811 65.648 165.419 65.872C166.059 66.128 166.715 66.256 167.387 66.256C168.219 66.256 168.859 66.096 169.307 65.776C169.755 65.456 169.979 65.008 169.979 64.432C169.979 63.888 169.739 63.456 169.259 63.136C168.811 62.816 168.187 62.656 167.387 62.656H165.371L166.619 58.384C164.251 58.16 161.947 57.568 159.707 56.608C157.467 55.616 155.467 54.304 153.707 52.672ZM216.147 43.456C216.147 45.728 215.795 47.808 215.091 49.696C214.387 51.552 213.379 53.136 212.067 54.448C210.787 55.728 209.219 56.72 207.363 57.424C205.539 58.128 203.507 58.48 201.267 58.48C198.995 58.48 196.931 58.128 195.075 57.424C193.251 56.72 191.699 55.728 190.419 54.448C189.139 53.136 188.147 51.552 187.443 49.696C186.739 47.84 186.387 45.76 186.387 43.456V24.4H193.347V43.456C193.347 46.048 194.067 48.128 195.507 49.696C196.979 51.264 198.915 52.048 201.315 52.048C203.715 52.048 205.619 51.264 207.027 49.696C208.467 48.128 209.187 46.048 209.187 43.456V24.4H216.147V43.456ZM196.083 20.416C195.091 20.416 194.243 20.08 193.539 19.408C192.835 18.736 192.483 17.904 192.483 16.912C192.483 15.92 192.819 15.104 193.491 14.464C194.195 13.792 195.059 13.456 196.083 13.456C197.107 13.456 197.955 13.792 198.627 14.464C199.331 15.104 199.683 15.92 199.683 16.912C199.683 17.904 199.331 18.736 198.627 19.408C197.923 20.08 197.075 20.416 196.083 20.416ZM206.595 20.416C205.571 20.416 204.707 20.08 204.003 19.408C203.331 18.736 202.995 17.904 202.995 16.912C202.995 15.92 203.331 15.104 204.003 14.464C204.675 13.792 205.539 13.456 206.595 13.456C207.619 13.456 208.467 13.792 209.139 14.464C209.811 15.104 210.147 15.92 210.147 16.912C210.147 17.904 209.795 18.736 209.091 19.408C208.419 20.08 207.587 20.416 206.595 20.416ZM221.696 58V24.4H238.112C239.808 24.4 241.36 24.656 242.768 25.168C244.208 25.68 245.44 26.4 246.464 27.328C247.488 28.224 248.288 29.312 248.864 30.592C249.44 31.872 249.728 33.28 249.728 34.816C249.728 36.928 249.12 38.816 247.904 40.48C246.72 42.144 245.136 43.376 243.152 44.176L250.592 58H242.816L236.24 45.136H228.656V58H221.696ZM237.488 30.4H228.656V39.424H237.488C239.056 39.424 240.304 39.008 241.232 38.176C242.192 37.344 242.672 36.256 242.672 34.912C242.672 33.568 242.192 32.48 241.232 31.648C240.304 30.816 239.056 30.4 237.488 30.4Z" fill="#282C34"/>
<rect x="270" width="17.3913" height="17.3729" fill="#01A35A"/>
<rect x="270" y="21.5424" width="17.3913" height="17.3729" fill="#02A25A"/>
<rect x="290.87" y="21.5424" width="17.3913" height="17.3729" fill="#00B764"/>
<rect x="270" y="43.0847" width="17.3913" height="17.3729" fill="#00A45C"/>
<rect x="290.87" y="43.0847" width="17.3913" height="17.3729" fill="#00B764"/>
<rect x="311.739" y="43.0847" width="17.3913" height="17.3729" fill="#00E17B"/>
<rect x="270" y="64.6271" width="17.3913" height="17.3729" fill="#01A35A"/>
<rect x="290.87" y="64.6271" width="17.3913" height="17.3729" fill="#00B764"/>
<rect x="311.739" y="64.6271" width="17.3913" height="17.3729" fill="#01E07B"/>
<rect x="332.609" y="64.6271" width="17.3913" height="17.3729" fill="#01FF8B"/>
</svg>
