<svg width="92" height="89" viewBox="0 0 92 89" fill="none" xmlns="http://www.w3.org/2000/svg">
<path d="M46.6287 20.9437C42.2203 21.8796 40.1043 26.9856 41.9098 32.3514C43.8188 38.0111 49.2737 41.6372 53.7702 40.2064C57.753 38.947 59.593 34.0713 57.868 28.9604C56.0625 23.5947 51.0293 20.0078 46.6287 20.9437ZM52.3173 35.6345L52.716 36.7566L51.8765 36.9771L51.5047 35.904C50.6383 36.1049 49.657 36.0755 48.7485 35.7717L48.4993 33.8753C49.2468 34.0223 50.1783 34.1595 50.8875 33.9733L51.3667 33.7724C52.2138 33.2383 51.9493 31.876 50.692 31.5526C49.7528 31.288 47.2688 31.484 46.3412 28.8477C45.8198 27.3581 46.207 25.8047 47.7058 25.0942L47.2918 23.923L48.1237 23.7025L48.5223 24.8247C49.1318 24.6973 49.8448 24.6483 50.6805 24.7414L51.014 26.6181C50.3623 26.5152 49.6608 26.4172 49.0513 26.5789L48.8213 26.6573C47.6368 27.0591 48.0163 28.4949 49.0667 28.8428C50.8032 29.3573 52.877 29.5239 53.6973 31.8417C54.3605 33.7283 53.59 35.0171 52.3173 35.6345ZM91.8467 40.814L77.4103 0.534424C53.728 20.1548 27.5502 -1.02384 8.59817 22.3599L23.0307 62.6394C43.3397 40.6278 71.0202 61.4732 91.8467 40.814ZM81.1018 31.7388C79.6643 34.2918 78.5987 37.2123 77.9623 40.2701C64.1892 45.6309 47.7135 39.2851 31.8933 46.3512C29.3365 44.6165 26.1318 43.5287 23.5022 43.6267L19.1513 31.4399C20.8073 28.8673 22.1107 24.9472 22.6703 21.1789C35.6998 15.1713 52.003 21.9384 69.4293 14.3138C71.4265 16.0092 73.761 17.2392 76.061 17.8468L81.1018 31.7388ZM92 59.3857C65.7148 78.6973 44.4705 52.4078 17.25 88.7378L0 39.8829L5.37433 32.714L19.9678 73.905L19.9602 73.9393C48.4993 46.5227 62.8743 68.1766 89.378 51.5797C90.505 54.755 91.5438 58.1067 92 59.3857Z" fill="white"/>
</svg>
